
<?xml version="1.0" standalone="no"?><!DOCTYPE svg PUBLIC "-//W3C//DTD SVG 1.1//EN" "http://www.w3.org/Graphics/SVG/1.1/DTD/svg11.dtd"><svg t="1513482022854" class="icon" style="" viewBox="0 0 1024 1024" version="1.1" xmlns="http://www.w3.org/2000/svg" p-id="1853" xmlns:xlink="http://www.w3.org/1999/xlink" width="200" height="200"><defs><style type="text/css"></style></defs><path d="M943.922197 246.987231c-13.570063-19.976984-35.945677-31.900547-59.852156-31.900547l-617.739253 0-63.893192-0.078795-6.769171-37.614689-6.594185-46.982034c-1.207501-8.596795-8.490372-14.988366-17.084097-14.988366L83.074044 115.422799c-9.529027 0-17.254989 7.807826-17.254989 17.438161 0 9.628288 7.724938 17.436114 17.254989 17.436114l73.934896 0 4.538363 32.328289c0.031722 0.225127 0.067538 0.447185 0.10847 0.672312l8.874111 49.318242c0.020466 2.035356 0.387833 3.986801 1.043772 5.798053l13.06455 72.610738c0.048095 0.270153 0.103354 0.541329 0.163729 0.809435l65.515133 286.435685c0.081864 0.356111 0.172939 0.708128 0.276293 1.059122 16.47216 55.819307 50.04172 87.833441 92.098581 87.833441L725.507722 687.162392c39.972387 0 72.726372-27.881001 100.136651-85.234243 0.088004-0.184195 0.171915-0.369414 0.25378-0.556679l124.843356-286.435685c0.110517-0.252757 0.213871-0.508583 0.311085-0.763386C959.847911 291.092751 957.248713 266.605034 943.922197 246.987231zM918.982178 301.281811l-124.542504 285.748023c-21.036106 43.915186-43.584658 65.260329-68.931952 65.260329L342.691943 652.290163c-34.94693 0-51.847855-38.861076-58.876945-62.418608l-65.298192-285.495266-9.803273-54.486962 57.595766 0.070608 617.759719 0c12.344143 0 24.3772 6.42227 31.402197 16.762779C922.296667 276.773627 923.538961 289.028743 918.982178 301.281811zM340.783477 704.97713c-51.705616 0-93.770663 42.507116-93.770663 94.756107 0 52.246945 42.065048 94.756107 93.770663 94.756107 51.704592 0 93.768617-42.510186 93.768617-94.756107C434.552094 747.484246 392.488069 704.97713 340.783477 704.97713zM340.783477 859.615069c-32.677237 0-59.259662-26.863834-59.259662-59.881832 0-33.017998 26.583448-59.881832 59.259662-59.881832 32.676214 0 59.259662 26.863834 59.259662 59.881832C400.043139 832.751235 373.458667 859.615069 340.783477 859.615069zM727.59015 704.97713c-51.704592 0-93.768617 42.507116-93.768617 94.756107 0 52.246945 42.065048 94.756107 93.768617 94.756107s93.770663-42.510186 93.770663-94.756107C821.360813 747.484246 779.294742 704.97713 727.59015 704.97713zM727.59015 859.615069c-32.676214 0-59.258639-26.863834-59.258639-59.881832 0-33.017998 26.583448-59.881832 59.258639-59.881832s59.259662 26.863834 59.259662 59.881832C786.850835 832.751235 760.266363 859.615069 727.59015 859.615069zM756.053412 311.867914 469.545072 525.405311l-91.081415-107.241466c-6.207375-7.309476-17.10047-8.148587-24.332175-1.87879-7.231705 6.272867-8.061606 17.281595-1.855254 24.589025l101.518115 119.534444c3.3984 4.002151 8.228405 6.080485 13.103436 6.080485 3.568269 0 7.160073-1.112334 10.232039-3.403516l299.407114-223.150336c7.66968-5.716188 9.301853-16.633842 3.645017-24.38334C774.525112 307.800271 763.723092 306.153772 756.053412 311.867914z" p-id="1854"></path></svg>