
<?xml version="1.0" standalone="no"?><!DOCTYPE svg PUBLIC "-//W3C//DTD SVG 1.1//EN" "http://www.w3.org/Graphics/SVG/1.1/DTD/svg11.dtd"><svg t="1513483986390" class="icon" style="" viewBox="0 0 1024 1024" version="1.1" xmlns="http://www.w3.org/2000/svg" p-id="4798" xmlns:xlink="http://www.w3.org/1999/xlink" width="200" height="200"><defs><style type="text/css"></style></defs><path d="M376.097774 551.170115l173.962054 0 0 34.792411-173.962054 0 0-34.792411Z" p-id="4799"></path><path d="M376.097774 673.966858l243.546875 0 0 34.792411-243.546875 0 0-34.792411Z" p-id="4800"></path><path d="M376.097774 429.396677l243.546875 0 0 34.792411-243.546875 0 0-34.792411Z" p-id="4801"></path><path d="M799.170418 947.106726 225.645157 947.106726c-29.241998 0-52.213175-24.619724-52.213175-53.861722l-0.815575-764.138554c0-29.259394 22.970154-52.213175 52.213175-52.213175l404.64904 0c12.534478 0 24.704658 4.461615 34.256198 12.551874l170.065304 173.447331c10.741645 8.999978 16.766872 24.594141 16.766872 40.212864l0.815575 591.787184C851.382571 924.161131 828.412416 947.106726 799.170418 947.106726zM224.829582 111.702058c-10.044774 0-18.219967 8.175193-18.219967 18.219967l0.815575 764.138554c0 10.06217 8.175193 18.237363 18.219967 18.237363l573.525262 0c10.044774 0 18.219967-8.175193 18.219967-18.219967l-0.815575-591.787184c0-5.395894-2.353604-10.461259-6.459109-13.93743L640.058584 114.90603c-2.098801-1.674129-6.271844-3.203972-10.579963-3.203972L224.829582 111.702058z" p-id="4802"></path><path d="M828.399113 307.623239 619.644649 307.623239 619.644649 98.868775 654.43706 98.868775 654.43706 272.830829 828.399113 272.830829Z" p-id="4803"></path></svg>