
<?xml version="1.0" standalone="no"?><!DOCTYPE svg PUBLIC "-//W3C//DTD SVG 1.1//EN" "http://www.w3.org/Graphics/SVG/1.1/DTD/svg11.dtd"><svg t="1513783571231" class="icon" style="" viewBox="0 0 1024 1024" version="1.1" xmlns="http://www.w3.org/2000/svg" p-id="1857" xmlns:xlink="http://www.w3.org/1999/xlink" width="200" height="200"><defs><style type="text/css"></style></defs><path d="M682.432 652.992h71.04c86.4 0 156.352-74.24 156.352-165.568 0-91.52-70.016-165.568-156.352-165.568h-142.08c-86.4 0-156.48 74.112-156.48 165.568 0 15.744 2.752 30.656 6.656 45.12H345.152a274.496 274.496 0 0 1-3.904-45.12c0-141.312 108.224-255.936 241.664-255.936h198.976c133.504 0 241.792 114.624 241.792 255.936s-108.288 256-241.792 256h-99.52v-90.432z" fill="" p-id="1858"></path><path d="M341.248 321.792H270.144c-86.4 0-156.416 74.112-156.416 165.504s70.08 165.632 156.416 165.632h142.144c86.4 0 156.416-74.24 156.416-165.632a174.72 174.72 0 0 0-6.656-45.12h116.416a281.6 281.6 0 0 1 3.968 45.12c0 141.376-108.096 256-241.728 256H241.728c-133.44 0-241.728-114.624-241.728-256 0-141.312 108.224-255.872 241.728-255.872h99.52v90.368z" fill="" p-id="1859"></path></svg>