
<?xml version="1.0" standalone="no"?><!DOCTYPE svg PUBLIC "-//W3C//DTD SVG 1.1//EN" "http://www.w3.org/Graphics/SVG/1.1/DTD/svg11.dtd"><svg t="1513485112249" class="icon" style="" viewBox="0 0 1024 1024" version="1.1" xmlns="http://www.w3.org/2000/svg" p-id="7290" xmlns:xlink="http://www.w3.org/1999/xlink" width="200" height="200"><defs><style type="text/css"></style></defs><path d="M1024.011724 876.555255c-0.005862-155.739684-89.432929-288.857339-215.897046-343.146691 61.247722-44.141974 101.614472-119.341608 101.614472-204.74724 0-116.59226-75.199634-214.173575-176.151683-239.550813a4.044882 4.044882 0 0 0-2.667277 0.240348c-1.143119-0.117243-2.262789-0.38104-3.429356-0.38104-21.566842 0-39.047767 18.864392-39.047768 42.125395 0 21.004076 14.297779 38.273964 32.951134 41.451248 3.317976 1.459675 7.673552 2.567621 7.843554 2.637967 58.463201 21.39684 100.524113 81.00316 100.524112 151.290313 0 78.371056-52.337257 143.493657-121.364048 157.123151-0.093794 0.005862-0.175864 0.199313-0.275521 0.252073-22.962033 1.565193-41.193313 21.947882-41.193314 47.096496 0 25.535516 18.764736 46.223036 42.225052 47.231326 0.158278 0.087932 0.304832 0.363453 0.468972 0.369315 138.827387 15.253309 237.235264 142.790199 237.235264 298.014014 0 22.97962 17.27575 41.609526 38.584658 41.609526 20.787177 0 37.611541-17.774033 38.426379-39.979848 0.023449-0.216899 0.152416-0.386902 0.152416-0.609664 0-0.076208-0.029311-0.152416-0.02931-0.252072 0.011724-0.252072 0.029311-0.504145 0.02931-0.756217v-0.017587z m-462.347607-336.241081c73.147882-52.853126 121.317151-142.719853 121.317152-244.797435 0-162.662881-122.266819-294.531898-273.099886-294.531898-150.827204 0-273.105748 131.869018-273.105748 294.531898 0 102.089306 48.186856 191.94431 121.317152 244.797435-151.190657 65.069842-258.086925 224.309228-258.086925 410.578979 0 10.487383 0.551042 20.816487 1.295535 31.086971h0.070346c0 22.674788 17.041264 41.035035 38.068788 41.035035 21.009938 0 38.057064-18.366109 38.057065-41.035035 0-1.277948-0.240348-2.485551-0.351729-3.734189-0.732768-9.039432-1.360018-18.090589-1.360019-27.352782 0-198.990611 149.578567-360.305198 334.101397-360.305198 184.528692 0 334.107259 161.314587 334.107259 360.305198 0 9.602198-0.62725 19.046119-1.412777 28.413831-0.005862 0.486558-0.128967 0.932082-0.128968 1.424502 0 0.146554 0.046897 0.293107 0.046898 0.433799-0.023449 0.269659-0.017586 0.551042-0.046898 0.814839h0.123105c0.62725 22.065125 17.322647 39.79226 37.93396 39.79226 20.623036 0 37.312572-17.715411 37.945683-39.79226h0.08207c0.721044-10.276345 1.231051-20.611312 1.231051-31.075247-0.011724-186.281475-106.90213-345.520861-258.104511-410.590703z m-151.782734-33.232516c-108.344218 0-196.170918-94.720586-196.170918-211.564919 0-116.83847 87.8267-211.564919 196.170918-211.564919s196.170918 94.720586 196.170918 211.564919-87.8267 211.564919-196.170918 211.564919z" fill="" p-id="7291"></path></svg>