
<?xml version="1.0" standalone="no"?><!DOCTYPE svg PUBLIC "-//W3C//DTD SVG 1.1//EN" "http://www.w3.org/Graphics/SVG/1.1/DTD/svg11.dtd"><svg t="1514002060269" class="icon" style="" viewBox="0 0 1024 1024" version="1.1" xmlns="http://www.w3.org/2000/svg" p-id="2332" xmlns:xlink="http://www.w3.org/1999/xlink" width="200" height="200"><defs><style type="text/css"></style></defs><path d="M774 135H265q-53 0-90 37t-37 89v502q0 52 37 89t90 37h509q52 0 89-37t37-89V261q0-52-37-89t-89-37z m-450 49h390v280H324V184z m527 579q0 32-22.5 54.5T774 840H265q-32 0-55-22.5T187 763V261q0-32 23-54.5t55-22.5h10v329h488V184h11q32 0 54.5 22.5T851 261v502zM592 257h49v164h-49V257z" fill="" p-id="2333"></path></svg>